<svg width="50" height="50" viewBox="0 0 50 50" fill="none" xmlns="http://www.w3.org/2000/svg">
<path d="M8.33325 12.5001C8.33325 11.9475 8.55275 11.4176 8.94345 11.0269C9.33415 10.6362 9.86405 10.4167 10.4166 10.4167H39.5832C40.1358 10.4167 40.6657 10.6362 41.0564 11.0269C41.4471 11.4176 41.6666 11.9475 41.6666 12.5001C41.6666 13.0526 41.4471 13.5825 41.0564 13.9732C40.6657 14.3639 40.1358 14.5834 39.5832 14.5834H10.4166C9.86405 14.5834 9.33415 14.3639 8.94345 13.9732C8.55275 13.5825 8.33325 13.0526 8.33325 12.5001Z" fill="white"/>
<path d="M8.33325 37.5001C8.33325 36.9475 8.55275 36.4176 8.94345 36.0269C9.33415 35.6362 9.86405 35.4167 10.4166 35.4167H39.5832C40.1358 35.4167 40.6657 35.6362 41.0564 36.0269C41.4471 36.4176 41.6666 36.9475 41.6666 37.5001C41.6666 38.0526 41.4471 38.5825 41.0564 38.9732C40.6657 39.3639 40.1358 39.5834 39.5832 39.5834H10.4166C9.86405 39.5834 9.33415 39.3639 8.94345 38.9732C8.55275 38.5825 8.33325 38.0526 8.33325 37.5001Z" fill="white"/>
<path d="M10.4166 22.9167C9.86405 22.9167 9.33415 23.1362 8.94345 23.5269C8.55275 23.9176 8.33325 24.4475 8.33325 25.0001C8.33325 25.5526 8.55275 26.0825 8.94345 26.4732C9.33415 26.8639 9.86405 27.0834 10.4166 27.0834H27.0833C27.6358 27.0834 28.1657 26.8639 28.5564 26.4732C28.9471 26.0825 29.1666 25.5526 29.1666 25.0001C29.1666 24.4475 28.9471 23.9176 28.5564 23.5269C28.1657 23.1362 27.6358 22.9167 27.0833 22.9167H10.4166Z" fill="white"/>
</svg>
