<svg width="24" height="24" viewBox="0 0 24 24" fill="none" xmlns="http://www.w3.org/2000/svg">
<path d="M8.56388 2.445C8.56388 2.12 8.59688 1.925 9.15388 1.925H16.6189C17.9189 1.925 18.6389 3.035 19.1589 5.118L19.5789 6.784H20.8489C21.0789 2.056 21.2789 0 21.2789 0C21.2789 0 18.0829 0.36 16.1889 0.36H6.63988L1.52588 0.196V1.566L3.25088 1.892C4.46088 2.132 4.75088 2.388 4.85088 3.498C4.85088 3.498 4.96088 6.768 4.96088 12.138C4.96088 17.523 4.87088 20.748 4.87088 20.748C4.87088 21.721 4.48088 22.081 3.28088 22.321L1.55888 22.651V24L6.68888 23.835H15.2389C17.1739 23.835 21.6289 24 21.6289 24C21.7339 22.83 22.3789 17.52 22.4839 16.936H21.2839L19.9999 19.846C18.9949 22.126 17.5239 22.291 15.8899 22.291H10.9839C9.35388 22.291 8.56888 21.651 8.56888 20.241V12.8C8.56888 12.8 12.1889 12.8 13.3589 12.896C14.2709 12.96 14.8219 13.221 15.1189 14.494L15.5089 16.189H16.9189L16.8289 11.911L17.0209 7.606H15.6299L15.1799 9.496C14.8969 10.74 14.6999 10.966 13.4259 11.096C11.7599 11.266 8.61088 11.236 8.61088 11.236V2.45H8.56088L8.56388 2.445Z" fill="white"/>
</svg>
