<svg width="20" height="20" viewBox="0 0 20 20" fill="none" xmlns="http://www.w3.org/2000/svg">
<path d="M15.8334 7.50008C15.8334 6.73404 15.6825 5.97549 15.3894 5.26776C15.0962 4.56003 14.6665 3.91697 14.1249 3.37529C13.5832 2.83362 12.9401 2.40394 12.2324 2.11078C11.5247 1.81763 10.7661 1.66675 10.0001 1.66675C9.23404 1.66675 8.47549 1.81763 7.76776 2.11078C7.06003 2.40394 6.41697 2.83362 5.87529 3.37529C5.33362 3.91697 4.90394 4.56003 4.61078 5.26776C4.31763 5.97549 4.16675 6.73404 4.16675 7.50008C4.16675 8.65591 4.50841 9.73092 5.08758 10.6376H5.08091C7.04758 13.7167 10.0001 18.3334 10.0001 18.3334L14.9192 10.6376H14.9134C15.5138 9.70122 15.833 8.61237 15.8334 7.50008ZM10.0001 10.0001C9.33704 10.0001 8.70116 9.73669 8.23231 9.26785C7.76347 8.79901 7.50008 8.16312 7.50008 7.50008C7.50008 6.83704 7.76347 6.20116 8.23231 5.73231C8.70116 5.26347 9.33704 5.00008 10.0001 5.00008C10.6631 5.00008 11.299 5.26347 11.7678 5.73231C12.2367 6.20116 12.5001 6.83704 12.5001 7.50008C12.5001 8.16312 12.2367 8.79901 11.7678 9.26785C11.299 9.73669 10.6631 10.0001 10.0001 10.0001Z" fill="#333333"/>
</svg>
