<svg width="36" height="36" viewBox="0 0 36 36" fill="none" xmlns="http://www.w3.org/2000/svg">
<g clip-path="url(#clip0_1_914)">
<path fill-rule="evenodd" clip-rule="evenodd" d="M32.0435 22.1365C32.0435 22.1365 34.9541 25.0111 35.6741 26.3413C35.6881 26.3605 35.6991 26.3817 35.7065 26.4043C35.9999 26.8957 36.0719 27.2809 35.9279 27.5653C35.6849 28.0351 34.8623 28.2709 34.5833 28.2907H29.4389C29.0807 28.2907 28.3355 28.1971 27.4283 27.5707C26.7353 27.0865 26.0459 26.2891 25.3781 25.5097C24.3809 24.3523 23.5187 23.3479 22.6457 23.3479C22.5355 23.3476 22.4259 23.3659 22.3217 23.4019C21.6611 23.6107 20.8223 24.5521 20.8223 27.0595C20.8223 27.8443 20.2031 28.2907 19.7693 28.2907H17.4131C16.6103 28.2907 12.4307 28.0099 8.72452 24.1021C4.18312 19.3177 0.104318 9.72007 0.0647179 9.63547C-0.189082 9.01447 0.343718 8.67607 0.919718 8.67607H6.11452C6.81112 8.67607 7.03792 9.09727 7.19632 9.47527C7.37992 9.90907 8.06032 11.6443 9.17632 13.5937C10.9835 16.7653 12.0941 18.0559 12.9815 18.0559C13.1482 18.0564 13.3121 18.0129 13.4567 17.9299C14.6159 17.2927 14.3999 13.1527 14.3459 12.2995C14.3459 12.1339 14.3441 10.4509 13.7501 9.63727C13.3253 9.05407 12.6017 8.82727 12.1643 8.74447C12.2813 8.57527 12.5297 8.31607 12.8483 8.16307C13.6421 7.76707 15.0767 7.70947 16.5005 7.70947H17.2907C18.8351 7.73107 19.2347 7.83007 19.7963 7.97227C20.9267 8.24227 20.9483 8.97487 20.8493 11.4697C20.8205 12.1825 20.7899 12.9853 20.7899 13.9303C20.7899 14.1319 20.7809 14.3569 20.7809 14.5855C20.7467 15.8653 20.7017 17.3071 21.6053 17.8993C21.7225 17.9723 21.8578 18.0109 21.9959 18.0109C22.3091 18.0109 23.2469 18.0109 25.7903 13.6459C26.9063 11.7181 27.7703 9.44467 27.8297 9.27367C27.8801 9.17827 28.0313 8.91007 28.2149 8.80207C28.3455 8.73258 28.4918 8.69787 28.6397 8.70127H34.7507C35.4167 8.70127 35.8685 8.80207 35.9567 9.05407C36.1043 9.46267 35.9279 10.7101 33.1379 14.4829C32.6681 15.1111 32.2559 15.6547 31.8941 16.1299C29.3651 19.4491 29.3651 19.6165 32.0435 22.1365Z" fill="white"/>
</g>
<defs>
<clipPath id="clip0_1_914">
<rect width="36" height="36" fill="white"/>
</clipPath>
</defs>
</svg>
