<svg width="39" height="39" viewBox="0 0 39 39" fill="none" xmlns="http://www.w3.org/2000/svg">
<path d="M35.8434 11.2855C35.6492 10.5641 35.2689 9.90628 34.7406 9.37798C34.2123 8.84968 33.5545 8.46941 32.8331 8.27521C30.1762 7.55615 19.4999 7.55615 19.4999 7.55615C19.4999 7.55615 8.82369 7.55615 6.16682 8.27521C5.44536 8.46941 4.78757 8.84968 4.25927 9.37798C3.73097 9.90628 3.35069 10.5641 3.1565 11.2855C2.66041 13.9951 2.41966 16.7453 2.43744 19.4999C2.41966 22.2545 2.66041 25.0047 3.1565 27.7143C3.35069 28.4357 3.73097 29.0935 4.25927 29.6218C4.78757 30.1501 5.44536 30.5304 6.16682 30.7246C8.82369 31.4436 19.4999 31.4436 19.4999 31.4436C19.4999 31.4436 30.1762 31.4436 32.8331 30.7246C33.5545 30.5304 34.2123 30.1501 34.7406 29.6218C35.2689 29.0935 35.6492 28.4357 35.8434 27.7143C36.3395 25.0047 36.5802 22.2545 36.5624 19.4999C36.5802 16.7453 36.3395 13.9951 35.8434 11.2855ZM16.0874 24.6187V14.3812L24.9478 19.4999L16.0874 24.6187Z" fill="white"/>
</svg>
